<?xml version="1.0" encoding="utf-8"?>
<!-- Generator: Adobe Illustrator 22.1.0, SVG Export Plug-In . SVG Version: 6.00 Build 0)  -->
<svg version="1.1" id="Layer_1" xmlns="http://www.w3.org/2000/svg" xmlns:xlink="http://www.w3.org/1999/xlink" x="0px" y="0px"
	 viewBox="0 0 64 64" style="enable-background:new 0 0 64 64;" xml:space="preserve">
<style type="text/css">
	.st0{fill:none;stroke:#ffffff;stroke-width:3;stroke-miterlimit:10;}
</style>
<path class="st0" d="M25.7,31c0,0.3,0,0.7,0,1c0,0.6,0,1.2,0,1.7c0,0.7,0.1,1.3,0.1,1.9c0.1,0.8,0.2,1.6,0.3,2.3
	c0.2,1.1,0.4,2.2,0.7,3.2c1.5,5.8,4.3,9.2,5,9.8c-1.6,0-3.1-0.2-4.6-0.6c-1.6-0.4-3.2-1.1-4.6-1.9c-1.5-0.8-2.8-1.8-3.9-3
	c-1.2-1.2-2.2-2.5-3-3.9c-0.8-1.4-1.5-3-1.9-4.6c-0.4-1.6-0.7-3.2-0.7-5c0-5.2,2.1-10,5.6-13.4C22,15.1,26.8,13,32,13
	c-0.6,0.5-2.2,2.4-3.6,5.7v0c-0.6,1.3-1.1,2.8-1.5,4.5c-0.3,1-0.5,2-0.7,3.1c-0.1,0.7-0.2,1.5-0.3,2.3c-0.1,0.6-0.1,1.2-0.2,1.9
	C25.7,30.5,25.7,30.8,25.7,31z"/>
<path class="st0" d="M51,32c0,1.7-0.2,3.3-0.7,4.9c0,0,0,0,0,0c-0.4,1.6-1.1,3.1-1.9,4.5c0,0,0,0,0,0c-0.8,1.4-1.8,2.7-3,3.9
	c0,0,0,0,0,0c-1.1,1.1-2.5,2.2-3.9,3c0,0,0,0-0.1,0c-1.4,0.8-2.9,1.4-4.5,1.9c0,0,0,0-0.1,0c-1.5,0.4-3.2,0.6-4.8,0.7H32
	c-0.1,0-0.2,0-0.3,0c0-6.2,0.1-12.3,0.1-18.4v-1.1c0-6.2,0.1-12.3,0.1-18.5c1.7,0,3.3,0.2,4.9,0.6c1.6,0.4,3.1,1.1,4.6,1.9
	c1.4,0.8,2.8,1.8,3.9,3c0,0,0,0,0,0c1.2,1.1,2.2,2.5,3,3.9c0,0,0,0,0,0c0.8,1.4,1.5,2.9,1.9,4.6c0,0,0,0,0,0
	C50.8,28.6,51,30.3,51,32z"/>
<line class="st0" x1="61" y1="32" x2="55" y2="32"/>
<polyline class="st0" points="51.9,20.5 57.1,17.5 57.1,17.4 "/>
<line class="st0" x1="15.6" y1="41.6" x2="15.6" y2="41.6"/>
<polyline class="st0" points="48.2,15.7 52.4,11.5 52.5,11.4 "/>
<line class="st0" x1="18.6" y1="45.5" x2="18.6" y2="45.5"/>
<polyline class="st0" points="43.5,12.1 46.5,6.9 46.5,6.7 "/>
<line class="st0" x1="22.6" y1="48.5" x2="22.5" y2="48.6"/>
<polyline class="st0" points="38,9.7 39.5,4.1 39.6,3.8 "/>
<line class="st0" x1="27.1" y1="50.4" x2="27.1" y2="50.5"/>
<line class="st0" x1="32.1" y1="8.9" x2="32.1" y2="3.1"/>
<line class="st0" x1="32.1" y1="60.9" x2="32.1" y2="55.1"/>
<polyline class="st0" points="54.2,26 60,24.5 60,24.5 "/>
<line class="st0" x1="13.7" y1="37" x2="13.6" y2="37"/>
<line class="st0" x1="57.1" y1="46.5" x2="51.9" y2="43.5"/>
<line class="st0" x1="18.6" y1="18.6" x2="18.6" y2="18.6"/>
<polyline class="st0" points="48.3,48.2 52.5,52.5 52.5,52.5 "/>
<line class="st0" x1="46.5" y1="57" x2="43.6" y2="51.9"/>
<line class="st0" x1="39.6" y1="59.9" x2="38" y2="54.3"/>
<line class="st0" x1="28.4" y1="18.7" x2="28.4" y2="18.7"/>
<line class="st0" x1="60" y1="39.5" x2="54.2" y2="37.9"/>
<path class="st0" d="M18.6,18.6C22,15.1,26.8,13,32,13c-0.6,0.5-2.2,2.4-3.6,5.7v0c-0.6,1.3-1.1,2.8-1.5,4.5c-0.3,1-0.5,2-0.7,3.1
	c-0.1,0.7-0.2,1.5-0.3,2.3c-0.1,0.6-0.1,1.2-0.2,1.9c0,0.2,0,0.5,0,0.7c0,0.3,0,0.7,0,1c0,0.6,0,1.2,0,1.7c0,0.7,0.1,1.3,0.1,1.9
	c0.1,0.8,0.2,1.6,0.3,2.3c0.2,1.1,0.4,2.2,0.7,3.2c1.5,5.8,4.3,9.2,5,9.8c-1.6,0-3.1-0.2-4.6-0.6c-1.6-0.4-3.2-1.1-4.6-1.9
	c-1.5-0.8-2.8-1.8-3.9-3c-1.2-1.2-2.2-2.5-3-3.9c-0.8-1.4-1.5-3-1.9-4.6c-0.4-1.6-0.7-3.2-0.7-5C13,26.8,15.1,22,18.6,18.6z"/>
<path class="st0" d="M32.1,51L32.1,51c-0.2,0-0.3,0-0.4,0c0-6.2,0.1-12.3,0.1-18.4v-1.1c0-6.2,0.1-12.3,0.1-18.5
	c1.7,0,3.3,0.2,4.9,0.6c1.6,0.4,3.1,1.1,4.6,1.9c1.4,0.8,2.8,1.8,3.9,3c0,0,0,0,0,0"/>
</svg>
